# xmcd CD database file
#
# Track frame offsets:
#	150
#	18824
#	38314
#	53399
#	77001
#	110110
#	120418
#	135866
#	157313
#	183104
#	203294
#
# Disc length: 3071 seconds
#
# Revision: 0
# Processed by: cddbd v1.5.2PL0 Copyright (c) Steve Scherf et al.
# Submitted via: CDex 1.70beta2
#
DISCID=720bfd0b
DTITLE=Priming Orchestra - Priming Orchestra
DYEAR=2006
DGENRE=Jazz
TTITLE0=Scrapyard Unit
TTITLE1=Cold Sheets
TTITLE2=Coleslow
TTITLE3=Varese
TTITLE4=The Entertainer
TTITLE5=Gullible Lullaby
TTITLE6=The Big Blues
TTITLE7=Humpback Flashback
TTITLE8=Shinkansen
TTITLE9=Mangrove
TTITLE10=Priming II
EXTD=YEAR: 2006
EXTT0=
EXTT1=
EXTT2=
EXTT3=
EXTT4=
EXTT5=
EXTT6=
EXTT7=
EXTT8=
EXTT9=
EXTT10=
PLAYORDER=
